<svg id="Layer_1" enable-background="new 0 0 128 128" viewBox="0 0 128 128" xmlns="http://www.w3.org/2000/svg"><g><path d="m127.7490005 67.8047028c-.537117-.9653015-1.7529144-1.3150024-2.7197189-.7778015l-7.6112823 4.2246017c-.9659195.5360947-1.3145142 1.7533951-.7784195 2.7192001.3663025.6581955 1.047905 1.0298004 1.7510071 1.0298004.3281937 0 .6611938-.0811005.9687958-.2520065l7.6112976-4.2245941c.965805-.5361023 1.3145065-1.7534027.7783202-2.7192001z"/><path d="m107.3856812 65.142601c.2041016.0659027.4112015.0970993.6143188.0970993.8446808 0 1.6298828-.5390015 1.9032822-1.3862l2.4326019-7.5390015c.3388977-1.0513-.2381973-2.178299-1.2890015-2.5175972-1.051796-.339901-2.1786957.2377968-2.517601 1.2889977l-2.4326019 7.5391007c-.3388977 1.0513.2383194 2.1781998 1.2890015 2.517601z"/><path d="m113.4706802 68.3798981c.3486023.2441025.7490005.3613052 1.1445007.3613052.6309052 0 1.2509995-.2974014 1.6407013-.8530045l9.6191178-13.7411994c.632782-.9048004.4130859-2.1519012-.492218-2.7856979-.9042969-.6328011-2.1513977-.4121017-2.7850952.4916992l-9.6192017 13.7411995c-.6328049.9048003-.4131012 2.1519012.4921951 2.7856979z"/><path d="m2 112h45c1.1044846 0 2-.8955002 2-2s-.8955154-2-2-2h-45c-1.1045139 0-2 .8955002-2 2s.8954861 2 2 2z"/><path d="m68 116h-47c-1.1045151 0-2 .8955002-2 2s.8954849 2 2 2h47c1.1044846 0 2-.8955002 2-2s-.8955154-2-2-2z"/><path d="m47 124h-45c-1.1045139 0-2 .8955002-2 2s.8954861 2 2 2h45c1.1044846 0 2-.8955002 2-2s-.8955154-2-2-2z"/><path d="m114.1240005 76.4561005c-1.7070007-1.4234009-11.8242188-9.5161972-14.8955154-12.3945999-5.205101-4.8778992-11.0762024-6.7230988-18.2743988-5.7265015-4.4150009.6123009-8.9092026.9248009-13.2559051 1.2270012-1.0116959.0703011-2.0155945.1405983-3.0585938.2153015-.3915863-.0004005-.8164024-.3334999-.8915863-.6997032l-2.7099152-13.2411995c1.7626991.6729012 3.4511948 1.3267021 5.1386948 2.0479012 4.3691025 1.8666992 8.3134003 1.8237 12.1865005-.0923004 3.1054993-1.5356979 15.5312042-7.3041992 18.5674057-8.7983017 2.2938995-1.1298981 3.8387985-2.7486 4.4676971-4.6801987.5782013-1.7798004.3536148-3.7290001-.650383-5.6371994-1.9482193-3.7001991-5.8740005-4.8565006-10.2939148-2.8848 0 0-11.6338043 5.1508999-15.7549057 7.1777-1.5526962.7641983-2.6239929.7867012-4.2870941.088398-4.3418045-1.8261986-18.7617035-7.713398-21.642601-8.9037991-.8086014 1.1704006-1.75 2.2310009-2.794899 3.1704006 3.3066978 1.3731003 18.5654144 7.6026001 22.8876953 9.4208984 2.7236023 1.1450005 5.0254059 1.080101 7.6025009-.1864967 4.047905-1.9906998 15.6182175-7.113802 15.6182175-7.113802 2.4228821-1.0800991 4.1210861-.8143997 5.1259995 1.0943012.4960861.9438.6259995 1.7972984.3856812 2.5375977-.3622971 1.1132011-1.5223999 1.8808022-2.4315948 2.3281021-2.9942017 1.4740982-15.4238052 7.2440987-18.5733032 8.8017006-2.8496017 1.4091988-5.5419006 1.4091988-8.8407822-.0009003-2.019516-.8628006-6.3164177-2.4995003-6.3164177-2.4995003-1.5311966-.5849991-3.0419998-.2544022-3.9159966.8143997-.6387024.7826996-.8594017 1.8578987-.6201019 3.028801l2.9336014 14.3311005c.4764977 2.3309975 2.7274971 4.0580978 5.1503983 3.8841972.9891968-.0727005 1.9891968-.1419983 2.9961014-.2123985 4.413002-.3065987 8.9765015-.6245003 13.5262985-1.2552986 6.0186005-.8334999 10.6445999.6112976 14.990303 4.6835976 3.1854935 2.9852982 6.6328125 5.7425995 9.9658127 8.408699 1.6845856 1.3476028 3.427681 2.7416992 5.1014862 4.1380997 1.1475143.9580994 3.6152954 3.4444046 1.7558975 5.842804-.7285004.9433975-1.5683823 1.4023972-2.5663834 1.4023972-1.1504135 0-2.5205154-.5967026-3.9609146-1.7250977-15.9922028-12.5396042-17.2159042-12.5396042-17.8740845-12.5396042l-.1474152.0054016c-5.1015854.3554993-10.0019989.8843002-16.9121017 1.8246994-2.1884842.2983017-2.7012024 1.6582031-2.8202972 2.2290039-.1201859.5746994-.1914063 2.0375977 1.7235947 3.2025986l.9502182.5791016c2.4472809 1.4926987 4.9784851 3.0366974 7.5917816 4.392601 1.965805 1.0199967 2.6268997 2.3710938 3.4492187 5.2094956 3.5038834 12.0878983 5.5897827 20.6503983 6.5644836 26.9468002.5692978 3.6688995-.6768036 4.6191025-3.0224838 5.0210037-.3164139.0541992-.6045151.0814972-.8555145.0814972-1.0586014.0005035-1.8066025-.3090973-3.2588043-4.596199-1.1434937-3.3755035-2.3680954-8.0932999-3.5516815-12.6557999-.5791168-2.2329025-1.1387177-4.3900986-1.6592178-6.2709045-.4160004-1.4995956-1.4101944-3.4487991-2.9511948-4.4223938l-2.0419998-1.2910004c-6.7841034-4.2906036-13.7988014-8.7271042-20.9297028-12.7393036-10.1307983-5.702095-16.0995979-14.9858017-19.3563995-30.1024971-.125-.5796013-.2362995-1.1631012-.3690987-1.8599014-.2832012-1.4756012-1.4278011-2.466301-2.8467007-2.466301-.9130993 0-1.8446846.4062996-2.6924 1.1738014-.5839996.5268974-7.3994007 6.6000977-9.7313995 9.525898-1.4063005 1.7637024-2.5693998 6.8711014-3.9434004 13.3642998-.3554859 1.6841049-.6640997 3.1390991-.8554859 3.8159027-.8339996 2.9496994-2.4511137 2.9496994-2.9824133 2.9496994-.3018003 0-.6289005-.0385971-.9727006-.1152039-3.7118857-.8261947-3.3729997-2.7988967-3.2275-3.6430969.1748004-1.0253983 1.1729002-6.1016006 1.4092002-7.2910004 1.7666001-8.8404007 6.9678001-17.4399986 14.2705002-23.5942993 3.7539139-3.1650009 7.232399-6.7098999 10.5966988-10.1455001-1.375-.2772999-2.7177849-.7045994-4.0107841-1.3085995-.0703144-.0326996-.134716-.0747013-.2049999-.1084003-2.8770008 2.9263-5.8409157 5.8754997-8.9590015 8.5038986-7.9825136 6.7276001-13.6739134 16.1562995-15.6153134 25.8702011-.1972.9941024-1.2381999 6.2792968-1.428686 7.3979034-.708 4.1138 1.6474861 7.1879959 6.300786 8.2231979.6288996.1400986 1.2480998.2108994 1.8418002.2108994 3.2880993 0 5.7782993-2.1362 6.8319998-5.8608017.2275991-.8061981.5331993-2.2495956.9199991-4.0772018.6650009-3.1455002 2.2236004-10.5126953 3.1571999-11.6986961 2.1191006-2.6597023 4.7441006-4.9981003 7.5223999-7.474102.3339996-.2973976.6690006-.596199 1.0059013-.8974991.0243988.1161995.0487995.2318993.0731983.3471985 2.3682003 10.9961014 6.9307156 24.6557007 21.3047161 32.7461014 7.0410004 3.9618988 14.0117836 8.3705978 20.7538834 12.634201l2.0429993 1.2919998c.3778992.2388.9570007 1.1128006 1.232399 2.1083984.5157166 1.8614044 4.0878983 15.6288986 5.2774048 19.1420975 1.0458984 3.0864029 2.4785004 7.3135071 7.0487976 7.3130035.4766006 0 .9911957-.0468979 1.5302963-.1391983 3.4589996-.5922012 7.3603058-2.7342987 6.2998047-9.5755997-1.0009995-6.4698029-3.1221008-15.1913986-6.6758041-27.4477997-.8661957-2.9888-1.9336014-5.8227997-5.4491959-7.6470032-1.9404984-1.0063019-3.8682022-2.1439972-5.7559052-3.2865982 5.1123199-.6605988 9.1162033-1.0737 13.1983185-1.3676987 1.865181 1.0590973 9.538002 6.7993011 15.7362823 11.6596985 2.1826019 1.7094955 4.3457184 2.5766983 6.4287186 2.5766983 2.2558823 0 4.2372818-1.0224991 5.730484-2.9545975 2.684517-3.4649047 1.7596971-7.924301-2.3564834-11.361801z"/><path d="m28.0263863 26.7040997c1.8397999.8604012 3.8026981 1.2964001 5.8348999 1.2964001 5.4179993 0 10.4189987-3.1597004 12.7392998-8.0473995 3.3584137-7.0591002.4862976-15.2104206-6.5371017-18.5585709-1.9413986-.924803-4.0009995-1.394042-6.1231003-1.394042-5.3680992 0-10.1708984 2.9917018-12.5331993 7.8081021-1.6561852 3.3813105-1.8661842 7.2373104-.5907993 10.8579102 1.2695006 3.6010994 3.8301009 6.4556011 7.2100009 8.0376zm-3.0273858-17.1347599c1.6845856-3.4350595 5.110384-5.5688496 8.9413834-5.5688496 1.5214996 0 3.0030022.3378897 4.402401 1.00488 5 2.38379 7.0410004 8.1943302 4.6455002 13.2304296-1.6631012 3.5020008-5.2450981 5.7646999-9.1269989 5.7646999-1.4424019 0-2.8349018-.3095989-4.1396008-.9193993-2.4004002-1.1231003-4.2226849-3.1631012-5.1319008-5.7441998-.9168987-2.6001004-.7713985-5.3589009.4092159-7.7675608z"/><path d="m38.3534851 47.107399c-1.044899.3565025-1.6034851 1.4932022-1.2461014 2.5386009.3955002 1.1581993.7821999 2.3676987 1.1767998 3.5980988 1.3838158 4.3223 2.815403 8.7915001 4.9902 12.532299 1.8213005 3.1400986 4.4395027 4.921402 7.6729012 6.9238052.3280983.2030945.6913986.3003006 1.0507164.3003006.6699982 0 1.3242836-.3364029 1.7021828-.9473038.5820007-.9393997.2919998-2.1718979-.6474991-2.7534027-3.357399-2.0795975-5.0663986-3.3715973-6.3193016-5.5316963-1.9569969-3.3666992-3.3212967-7.6254997-4.6395988-11.7437019-.402401-1.2557983-.7979012-2.4888-1.2011986-3.6703987-.3554993-1.0453987-1.4892998-1.6040001-2.5391007-1.2466011z"/><circle cx="58" cy="76" r="2"/></g></svg>