<svg width="24" height="24" viewBox="0 0 24 24" fill="none"
     xmlns="http://www.w3.org/2000/svg">
  <path d="M17.4087 2.17312C17.9677 2.10571 18.6876 2.01892 19.3307 2.00274
           C19.6707 1.99419 20.0317 2.0037 20.361 2.05922
           C20.6542 2.10866 21.1023 2.22163 21.4403 2.55967
           C21.7784 2.89771 21.8913 3.34581 21.9408 3.63904
           C21.9963 3.96834 22.0058 4.32933 21.9973 4.66933
           C21.9811 5.31243 21.8943 6.0322 21.8269 6.59123
           L21.8108 6.72504C21.7897 6.90163 21.764 7.11699 21.721 7.29027
           L21.72 7.29443C21.6896 7.4176 21.5497 7.98409 20.9545 8.18987
           C20.3609 8.39511 19.9029 8.03927 19.8015 7.96051
           L19.7995 7.95897C19.6591 7.8499 19.5069 7.69752 19.3837 7.57417
           L18.6119 6.80235L14.2071 11.2072
           C13.8166 11.5978 13.1834 11.5978 12.7929 11.2072
           C12.4024 10.8167 12.4024 10.1836 12.7929 9.79303
           L17.1977 5.38814L16.4258 4.61626
           C16.3025 4.49309 16.1501 4.34095 16.041 4.20049
           L16.0395 4.19851C15.9607 4.09713 15.6049 3.63907 15.8101 3.04548
           C16.0159 2.45032 16.5824 2.31041 16.7056 2.27998
           L16.7097 2.27896C16.883 2.23605 17.0985 2.21029 17.2751 2.18919
           L17.4087 2.17312Z"
        fill="currentColor"/>
  <path d="M6.5913 21.8269C6.03228 21.8943 5.31244 21.9811 4.66934 21.9973
           C4.32934 22.0058 3.96835 21.9963 3.63905 21.9408
           C3.34582 21.8913 2.89772 21.7784 2.55968 21.4403
           C2.22165 21.1023 2.10867 20.6542 2.05923 20.361
           C2.00371 20.0317 1.9942 19.6707 2.00275 19.3307
           C2.01892 18.6876 2.10571 17.9678 2.17312 17.4088
           L2.18921 17.275C2.21032 17.0984 2.23605 16.883 2.27897 16.7097
           L2.27999 16.7056C2.31042 16.5824 2.45033 16.0159 3.04549 15.8101
           C3.63908 15.6049 4.09714 15.9607 4.19852 16.0395
           L4.2005 16.041C4.34096 16.1501 4.4931 16.3025 4.61628 16.4258
           L5.38809 17.1976L9.79288 12.7928
           C10.1834 12.4022 10.8166 12.4022 11.2071 12.7928
           C11.5976 13.1833 11.5976 13.8164 11.2071 14.207
           L6.80231 18.6119L7.57419 19.3837
           C7.69754 19.5069 7.84991 19.6591 7.95898 19.7995
           L7.96052 19.8015C8.03928 19.9029 8.39512 20.3609 8.18988 20.9545
           C7.9841 21.5497 7.41762 21.6896 7.29444 21.72
           L7.29028 21.721C7.11704 21.7639 6.90153 21.7897 6.72496 21.8108
           L6.5913 21.8269Z"
        fill="currentColor"/>
</svg>
