<svg id="Layer_1" enable-background="new 0 0 512.178 512.178" height="512" viewBox="0 0 512.178 512.178" width="512" xmlns="http://www.w3.org/2000/svg"><path d="m501.188 191.495c-3.736-5.474-8.307-10.151-13.508-13.984l23.887-97.347c1.975-8.045-2.947-16.168-10.993-18.142-8.042-1.976-16.169 2.947-18.142 10.993l-22.883 93.253c-2.066-.287-4.161-.491-6.291-.589l-25.191-102.664c-1.975-8.047-10.102-12.969-18.142-10.993-8.046 1.974-12.968 10.097-10.993 18.142l24.864 101.327c-12.206 5.989-22.656 16.518-31.227 31.528l-32.115 50.411c-14.333-79.895-86.418-140.84-172.928-140.84-133.388-1.612-221.521 145.353-150.483 257.523-17.68 17.795-30.354 40.871-35.701 67.34l-1.044 5.166c-.891 4.409.244 8.986 3.093 12.469 2.849 3.482 7.11 5.502 11.609 5.502h291.043c57.626.328 109.498-30.921 136.145-82.019l11.852-22.403c17.202-32.509 34.99-66.125 52.226-99.217.247-.475.47-.963.665-1.463 8.655-22.12 6.508-46.043-5.743-63.993zm-459.188 91.133c0-77.218 65.283-140.039 145.526-140.039 85.229-.329 153.562 71.719 144.811 153.904-.035.339-.041.675-.053 1.01-15.266 22.008-38.394 34.085-65.514 34.085h-29.83c3.083-10.123 4.785-20.923 5.055-32.312.927-38.952-13.563-69.573-39.754-84.011-21.54-11.875-48.544-10.842-68.795 2.63-20.382 13.558-30.439 36.537-27.593 63.045.884 8.236 8.279 14.199 16.516 13.312 8.237-.885 14.197-8.278 13.312-16.516-1.635-15.226 3.472-27.607 14.38-34.863 11.044-7.348 25.841-7.873 37.697-1.336 25.509 12.104 30.387 62.106 17.239 90.05h-74.268c-25.702 0-49.706 7.115-70.019 19.705-12.251-20.943-18.71-44.56-18.71-68.664zm437.261-38.775c-17.066 32.76-34.69 66.066-51.738 98.283l-11.856 22.412c-22.191 41.97-62.147 66.041-109.623 66.041h-271.868c13.87-41.217 51.899-69 96.554-69h136.04c38.353 0 72.168-18.552 92.774-50.897l58.529-91.871c.139-.219.272-.44.399-.666 11.266-19.885 22.259-22.565 31.526-22.565 11.555 0 20.688 4.433 26.41 12.817 6.538 9.577 7.587 22.779 2.853 35.446z"/></svg>