<svg width="725" height="400" viewBox="0 0 725 400" fill="none" xmlns="http://www.w3.org/2000/svg">
<path d="M598 5L604 12L607 22V30L595 66L572 137L550 204L538 242L533 263L530 284L529 297L530 301V306.769L519 311L499 315H475L459 311L444 305L430 297L413 289L393 283L374 280H351L342 281L325 285L306 292L284 304L268 311L252 315H226L219 314L207 311L194 306L180 298L159 288L139 282L120 279H98L90 280L75 283L55.0195 289.659L61 280L75 256L88 232L94 222L102 215L113 210L118 209H130L138 211L183 228L219 242L260 257L278 265L284 268L296 265L335 253L358 246L375 241L432 223L472 211L476 206L491 172L510 131L521 107L557 29L565 13L572 5L577 2L581 1H590L598 5Z" fill="#999999"/>
<path d="M644 203L656 209L667 218L676 230L681 241L684 252L685 267L682 283L677.625 293.5L663 287L646 282L627 279H607L598 280L583 283L565 289L563.409 289.818L561 285L558 272V255L562 239L569 226L580 214L590 207L601 202L613 199H629L644 203Z" fill="#999999"/>
<path d="M98 298H120L139 301L159 307L180 317L194 325L207 330L219 333L226 334H252L268 330L284 323L306 311L325 304L342 300L351 299H374L393 302L413 308L430 316L444 324L459 330L475 334H499L519 330L532 325L565 308L583 302L598 299L607 298H627L646 301L663 306L681 314L699 324L717 330L725 332V399L723 400L706 397L689 392L668 383L649 373L635 368L629 367H604L589 371L566 382L554 388L530 396L515 399L507 400H471L452 397L432 391L413 383L395 373L380 368L374 367H350L335 371L316 380L300 388L276 396L262 399L254 400H217L198 397L178 391L162 384L141 373L126 368L121 367H95L80 371L61 380L45 388L26 395L9 399L0 400V332L23 325L54 309L75 302L90 299L98 298Z" fill="#999999"/>
</svg>
