<svg width="725" height="400" viewBox="0 0 725 400" fill="none" xmlns="http://www.w3.org/2000/svg">
<path d="M500 72H518L532 75L544 80L557 89L568 100L577 115L582 130L583 136V156L579 172L571 188L563 198L553 207L538 215L525 219L520 220H499L483 216L469 209L459 201L451 193L443 180L438 167L436 157V136L440 120L447 106L455 96L463 88L477 79L490 74L500 72Z" fill="#999999"/>
<path d="M402 178L414 184L424 192L430 200L444 224L459 250L473 274L488 300L496 313L495.5 315H475L459 311L444 305L430 297L413 289L393 283L374 280H351L342 281L325 285L306 292L284 304L268 311L252 315H226L224.209 314.744L207 307L195 301L197 297L208 289L227 275L247 260L342 190L355 181L368 176L372 175H390L402 178Z" fill="#999999"/>
<path d="M98 298H120L139 301L159 307L180 317L194 325L207 330L219 333L226 334H252L268 330L284 323L306 311L325 304L342 300L351 299H374L393 302L413 308L430 316L444 324L459 330L475 334H499L519 330L532 325L565 308L583 302L598 299L607 298H627L646 301L663 306L681 314L699 324L717 330L725 332V399L723 400L706 397L689 392L668 383L649 373L635 368L629 367H604L589 371L566 382L554 388L530 396L515 399L507 400H471L452 397L432 391L413 383L395 373L380 368L374 367H350L335 371L316 380L300 388L276 396L262 399L254 400H217L198 397L178 391L162 384L141 373L126 368L121 367H95L80 371L61 380L45 388L26 395L9 399L0 400V332L23 325L54 309L75 302L90 299L98 298Z" fill="#999999"/>
</svg>
