<svg width="725" height="400" viewBox="0 0 725 400" fill="none" xmlns="http://www.w3.org/2000/svg">
<path d="M98 298H120L139 301L159 307L180 317L194 325L207 330L219 333L226 334H252L268 330L284 323L306 311L325 304L342 300L351 299H374L393 302L413 308L430 316L444 324L459 330L475 334H499L519 330L532 325L565 308L583 302L598 299L607 298H627L646 301L663 306L681 314L699 324L717 330L725 332V399L723 400L706 397L689 392L668 383L649 373L635 368L629 367H604L589 371L566 382L554 388L530 396L515 399L507 400H471L452 397L432 391L413 383L395 373L380 368L374 367H350L335 371L316 380L300 388L276 396L262 399L254 400H217L198 397L178 391L162 384L141 373L126 368L121 367H95L80 371L61 380L45 388L26 395L9 399L0 400V332L23 325L54 309L75 302L90 299L98 298Z" fill="#999999"/>
<path d="M43 115L82 133L118 149L153 165L189 181L208 189L229 195L262 200L272 202L277 214L285 231L295 244L303 252L317 262L333 269L349 273H376L392 269L406 263L418 255L430 244L440 230L447 216L452 202L454 201L490 196L515 190L530 184L598 153L631 138L670 120L687 113L691 112H701L710 115L719 123L723 131L724 135V145L720 155L713 163L661 192L615 218L587 234L562 248L538 262L520 272L508 281L501 288L492 300L483.562 315H475L459 311L444 305L430 297L413 289L393 283L374 280H351L342 281L325 285L306 292L284 304L268 311L252 315H242L233 299L224 288L214 278L200 269L175 255L147 239L120 224L97 211L47 183L24 170L12 163L4 154L1 146V134L5 124L9 119L19 113L23 112H33L43 115Z" fill="#999999"/>
<path d="M387 117L401 124L411 132L420 142L426 152L431 167L432 172V195L429 207L421 223L412 234L399 244L387 250L377 253L370 254H355L341 251L329 246L316 237L308 229L299 215L294 201L292 190V176L295 162L300 150L309 137L317 129L331 120L344 115L354 113H371L387 117Z" fill="#999999"/>
</svg>
