<svg width="726" height="400" viewBox="0 0 726 400" fill="none" xmlns="http://www.w3.org/2000/svg">
<path d="M444.5 72.5L479.5 89.5L507.5 102.5L558.5 127.5L582.5 138.5L598.5 146.5L611.5 153.5L617.5 162.5L618.5 165.5V176.5L614.5 184.5L606.5 191.5L597.5 194.5H587.5L527.5 176.5L486.5 164.5L447.5 153.5L443.5 154.5L421.5 176.5L413.5 183.5L404.5 193.5L397.5 200.5L389.5 207.5L371.5 225.5L368.5 230.5L367.5 238.5L370.5 245.5L379.5 259.5L392.5 279.5L394.576 282.822L393.5 282.5L374.5 279.5H351.5L342.5 280.5L325.5 284.5L306.5 291.5L284.5 303.5L268.5 310.5L252.5 314.5H226.5L219.5 313.5L207.5 310.5L194.5 305.5L180.5 297.5L159.5 287.5L157.961 287.038L162.5 282.5L200.5 254.5L213.5 244.5L241.5 222.5L255.5 210.5L266.5 199.5L274.5 192.5L286.5 180.5L294.5 173.5L304.5 163.5L312.5 156.5L325.5 143.5L333.5 136.5L343.5 126.5L351.5 119.5L368.5 103.5L375.5 96.5L383.5 89.5L391.5 81.5L402.5 72.5L412.5 68.5H431.5L444.5 72.5Z" fill="#999999"/>
<path d="M507.5 197.5L519.5 203.5L528.5 210.5L536.5 219.5L543.5 230.5L548.5 244.5L550.5 260.5L548.5 276.5L544.5 288.5L538.5 299.5L533.447 305.012L532.5 305.5L519.5 310.5L499.5 314.5H475.5L459.5 310.5L444.5 304.5L430.5 296.5L422.653 292.808L418.5 284.5L415.5 272.5L414.5 265.5V254.5L417.5 240.5L422.5 228.5L430.5 217.5L439.5 208.5L450.5 201.5L461.5 196.5L472.5 193.5H492.5L507.5 197.5Z" fill="#999999"/>
<path d="M98.5 297.5H120.5L139.5 300.5L159.5 306.5L180.5 316.5L194.5 324.5L207.5 329.5L219.5 332.5L226.5 333.5H252.5L268.5 329.5L284.5 322.5L306.5 310.5L325.5 303.5L342.5 299.5L351.5 298.5H374.5L393.5 301.5L413.5 307.5L430.5 315.5L444.5 323.5L459.5 329.5L475.5 333.5H499.5L519.5 329.5L532.5 324.5L565.5 307.5L583.5 301.5L598.5 298.5L607.5 297.5H627.5L646.5 300.5L663.5 305.5L681.5 313.5L699.5 323.5L717.5 329.5L725.5 331.5V398.5L723.5 399.5L706.5 396.5L689.5 391.5L668.5 382.5L649.5 372.5L635.5 367.5L629.5 366.5H604.5L589.5 370.5L566.5 381.5L554.5 387.5L530.5 395.5L515.5 398.5L507.5 399.5H471.5L452.5 396.5L432.5 390.5L413.5 382.5L395.5 372.5L380.5 367.5L374.5 366.5H350.5L335.5 370.5L316.5 379.5L300.5 387.5L276.5 395.5L262.5 398.5L254.5 399.5H217.5L198.5 396.5L178.5 390.5L162.5 383.5L141.5 372.5L126.5 367.5L121.5 366.5H95.5L80.5 370.5L61.5 379.5L45.5 387.5L26.5 394.5L9.5 398.5L0.5 399.5V331.5L23.5 324.5L54.5 308.5L75.5 301.5L90.5 298.5L98.5 297.5Z" fill="#999999"/>
</svg>
