<svg width="24" height="24" viewBox="0 0 24 24" fill="none" xmlns="http://www.w3.org/2000/svg" role="img">
  <path d="M8.93 4.83c.67.1 1.24.53 1.52 1.15L15 16c-2.17 0-2.83-1.16-5.09-2.33-1.81-.93-4.16-.87-4.91-.67l2.9-2.07a.75.75 0 00.37-.93l-.57-1.71a.75.75 0 00-.81-.5L3.18 6.9A1.39 1.39 0 012 5.46c0-.89.77-1.57 1.64-1.45l5.29.82z" 
        stroke="#000" stroke-width="1.5" stroke-linecap="round" stroke-linejoin="round"/>
  <circle cx="19" cy="10" r="3" 
          stroke="#000" stroke-width="1.5" stroke-linecap="round" stroke-linejoin="round"/>
  <path d="M2 18.05c1.06-3.53 5.77-1.83 9.5.08s7.5 3.04 9.5-.08" 
        stroke="#000" stroke-width="1.5" stroke-linecap="round" stroke-linejoin="round"/>
</svg>
