<svg width="755" height="1001" viewBox="0 0 755 1001" fill="none" xmlns="http://www.w3.org/2000/svg">
<path d="M720.933 608.069C720.933 285.388 377.499 34.4351 377.499 34.4351C377.499 34.4351 34.0645 285.388 34.0645 608.069C34.0645 703.151 70.2723 794.357 134.642 861.622C199.06 928.837 286.44 966.565 377.499 966.565C468.607 966.565 555.938 928.837 620.356 861.572C684.775 794.357 720.933 703.151 720.933 608.069Z" fill="#212121" stroke="#212121" stroke-width="67.1164" stroke-linecap="round" stroke-linejoin="round"/>
<path d="M509.085 753.096C485.584 777.235 457.324 795.339 426.562 806.476ZM573.749 593.007C573.749 653.059 550.493 710.657 509.085 753.096Z" fill="#212121"/>
<path d="M426.562 806.476C457.324 795.339 485.584 777.235 509.085 753.096C550.493 710.657 573.749 653.059 573.749 593.007" stroke="#212121" stroke-width="67.1164" stroke-linecap="round" stroke-linejoin="round"/>
</svg>
