<svg width="570" height="749" viewBox="0 0 570 749" fill="none" xmlns="http://www.w3.org/2000/svg">
<path d="M535.569 453.424C535.569 217.703 284.688 34.3806 284.688 34.3806C284.688 34.3806 33.8066 217.703 33.8066 453.424C33.8066 522.882 60.2567 589.509 107.279 638.645C154.337 687.746 218.168 715.307 284.688 715.307C351.243 715.307 415.038 687.746 462.096 638.61C509.154 589.509 535.569 522.882 535.569 453.424Z" fill="#A4DFFF" stroke="#00A4FF" stroke-width="67.1164" stroke-linecap="round" stroke-linejoin="round"/>
<path d="M380.81 559.367C363.643 577 342.999 590.225 320.527 598.361ZM428.048 442.421C428.048 486.289 411.06 528.365 380.81 559.367Z" fill="#A4DFFF"/>
<path d="M320.527 598.361C342.999 590.225 363.643 577 380.81 559.367C411.06 528.365 428.048 486.289 428.048 442.421" stroke="#75C5F1" stroke-width="67.1164" stroke-linecap="round" stroke-linejoin="round"/>
</svg>
