<svg width="22" height="23" viewBox="0 0 22 23" fill="none" xmlns="http://www.w3.org/2000/svg">
<g clip-path="url(#clip0_149_42)">
<path d="M7 18C8.10457 18 9 17.1046 9 16C9 14.8954 8.10457 14 7 14C5.89543 14 5 14.8954 5 16C5 17.1046 5.89543 18 7 18Z" stroke="black" stroke-width="1.5" stroke-linejoin="round"/>
<path d="M7 22C10.3137 22 13 19.3137 13 16H17.7929C17.9255 16 18.0527 15.9473 18.1464 15.8536L20.8536 13.1464C20.9473 13.0527 21 12.9255 21 12.7929V10H14.5L14 11.5H11.5L10.5 10H7C3.68629 10 1 12.6863 1 16C1 19.3137 3.68629 22 7 22Z" stroke="black" stroke-width="1.5" stroke-linejoin="round"/>
<path d="M8.41662 7.89797C8.41662 7.89797 4.00483 6.88776 3.4745 4.90856C3.21244 3.93054 3.81341 2.91974 4.93185 2.62006C5.51141 2.46477 6.13664 2.47993 7.09207 2.95471C7.68212 2.06582 8.216 1.74007 8.79555 1.58478C9.91398 1.2851 10.9398 1.85999 11.2019 2.83801C11.7322 4.81721 8.41662 7.89797 8.41662 7.89797Z" stroke="black" stroke-width="1.5" stroke-linejoin="round"/>
<path d="M16.2229 7.89821C16.2229 7.89821 12.9073 4.81745 13.4376 2.83825C13.6997 1.86022 14.7255 1.28534 15.844 1.58502C16.4235 1.74031 16.9574 2.06606 17.5474 2.95495C18.5029 2.48017 19.1281 2.46501 19.7077 2.6203C20.8261 2.91998 21.4271 3.93078 21.165 4.9088C20.6347 6.888 16.2229 7.89821 16.2229 7.89821Z" stroke="black" stroke-width="1.5" stroke-linejoin="round"/>
</g>
<defs>
<clipPath id="clip0_149_42">
<rect width="22" height="23" fill="white"/>
</clipPath>
</defs>
</svg>
