<svg width="22" height="23" viewBox="0 0 22 23" fill="none" xmlns="http://www.w3.org/2000/svg">
<g clip-path="url(#clip0_149_25)">
<path d="M7 18C8.10457 18 9 17.1046 9 16C9 14.8954 8.10457 14 7 14C5.89543 14 5 14.8954 5 16C5 17.1046 5.89543 18 7 18Z" stroke="black" stroke-width="1.5" stroke-linejoin="round"/>
<path d="M7 22C10.3137 22 13 19.3137 13 16H17.7929C17.9255 16 18.0527 15.9473 18.1464 15.8536L20.8536 13.1464C20.9473 13.0527 21 12.9255 21 12.7929V10H14.5L14 11.5H11.5L10.5 10H7C3.68629 10 1 12.6863 1 16C1 19.3137 3.68629 22 7 22Z" stroke="black" stroke-width="1.5" stroke-linejoin="round"/>
<path d="M19.4165 0.921875L17.7499 3.64403H19.8332L15.25 7.9217L16.0833 4.81067H14L15.875 0.921875H19.4165Z" stroke="black" stroke-width="1.5" stroke-linecap="round" stroke-linejoin="round"/>
<path d="M5.41745 0.921875L7.08408 3.64403H5.0008L9.58402 7.9217L8.7507 4.81067H10.834L8.95903 0.921875H5.41745Z" stroke="black" stroke-width="1.5" stroke-linecap="round" stroke-linejoin="round"/>
</g>
<defs>
<clipPath id="clip0_149_25">
<rect width="22" height="23" fill="white"/>
</clipPath>
</defs>
</svg>
