<svg width="24" height="24" viewBox="0 0 24 24" fill="none" xmlns="http://www.w3.org/2000/svg">
<path d="M12 22C15.5899 22 18.5 19.0899 18.5 15.5C18.5 11.9101 15.5899 9 12 9C8.41015 9 5.5 11.9101 5.5 15.5C5.5 19.0899 8.41015 22 12 22Z" stroke="black" stroke-width="1.5"/>
<path d="M9 9.5L5.5 2" stroke="black" stroke-width="1.5" stroke-linecap="round" stroke-linejoin="round"/>
<path d="M15 9.5L18.5 2" stroke="black" stroke-width="1.5" stroke-linecap="round" stroke-linejoin="round"/>
<path d="M15 2L14 4.5" stroke="black" stroke-width="1.5" stroke-linecap="round" stroke-linejoin="round"/>
<path d="M12.5 9L9.5 2" stroke="black" stroke-width="1.5" stroke-linecap="round" stroke-linejoin="round"/>
<path d="M12 18C12 18 9 16.2353 9 14.5278C9 13.684 9.63158 13 10.5 13C10.95 13 11.4 13.1471 12 13.7353C12.6 13.1471 13.05 13 13.5 13C14.3684 13 15 13.684 15 14.5278C15 16.2353 12 18 12 18Z" stroke="black" stroke-width="1.5" stroke-linejoin="round"/>
</svg>
