<svg width="24" height="24" viewBox="0 0 24 24" fill="none" xmlns="http://www.w3.org/2000/svg">
<path d="M2 12.1932C2.68524 13.2443 3.57104 13.2443 4.27299 12.1932C6.52985 8.7408 8.67954 14.6764 10.273 12.2321C12.703 8.5694 14.4508 14.9218 16.273 12.1932C18.6492 8.5582 20.1295 14.5776 22 12.5842" stroke="black" stroke-width="1.5" stroke-linecap="round" stroke-linejoin="round"/>
<path fill-rule="evenodd" clip-rule="evenodd" d="M11.5005 24C11.2245 24 11.0169 23.864 10.8555 23.7154C10.7052 23.5771 10.5273 23.3595 10.3464 23.138L9.9262 22.624C9.61843 22.2475 9.3608 21.9323 9.2029 21.6701C9.04407 21.4063 8.91504 21.0819 9.06953 20.7457C9.22824 20.4002 9.57134 20.2876 9.88007 20.2419C10.1625 20.2 10.535 20.1973 10.973 20.1972V15.507C10.973 15.227 11.2085 15 11.4991 15C11.7897 15 12.0252 15.227 12.0252 15.507V20.1972C12.464 20.1973 12.8371 20.2 13.1199 20.2419C13.4287 20.2876 13.7718 20.4002 13.9305 20.7457C14.085 21.0819 13.9559 21.4063 13.7971 21.6701C13.6392 21.9323 13.3816 22.2475 13.0738 22.624L12.6536 23.138C12.4726 23.3595 12.2948 23.5771 12.1445 23.7154C11.9832 23.864 11.7766 24 11.5005 24Z" fill="black"/>
</svg>
