<svg width="24" height="24" viewBox="0 0 24 24" fill="none" xmlns="http://www.w3.org/2000/svg">
<path d="M2 12.1932C2.68524 13.2443 3.57104 13.2443 4.27299 12.1932C6.52985 8.7408 8.67954 14.6764 10.273 12.2321C12.703 8.5694 14.4508 14.9218 16.273 12.1932C18.6492 8.5582 20.1295 14.5776 22 12.5842" stroke="black" stroke-width="1.5" stroke-linecap="round" stroke-linejoin="round"/>
<path fill-rule="evenodd" clip-rule="evenodd" d="M11.5005 4.32134e-07C11.2245 4.32134e-07 11.0169 0.136039 10.8555 0.284552C10.7052 0.422873 10.5273 0.640547 10.3464 0.861973L9.9262 1.37601C9.61843 1.75249 9.3608 2.06767 9.2029 2.32991C9.04407 2.59372 8.91504 2.91808 9.06953 3.25435C9.22824 3.5998 9.57134 3.71241 9.88007 3.75815C10.1625 3.79998 10.535 3.80267 10.973 3.80282V8.49296C10.973 8.77299 11.2085 9 11.4991 9C11.7897 9 12.0252 8.77299 12.0252 8.49296V3.80282C12.464 3.80267 12.8371 3.80003 13.1199 3.75815C13.4287 3.71241 13.7718 3.5998 13.9305 3.25435C14.085 2.91808 13.9559 2.59372 13.7971 2.32991C13.6392 2.06767 13.3816 1.75249 13.0738 1.37601L12.6536 0.861973C12.4726 0.640547 12.2948 0.422873 12.1445 0.284552C11.9832 0.136039 11.7766 4.32134e-07 11.5005 4.32134e-07Z" fill="black"/>
</svg>
