<?xml version="1.0" encoding="UTF-8"?>
<svg xmlns="http://www.w3.org/2000/svg" id="Icons" viewBox="0 0 60 60" width="512" height="512"><path d="M5.531,38.97A10.622,10.622,0,0,1,9.746,40.4c3.284,1.918,1.732,3.308,5.953,7.89a18.925,18.925,0,0,0,3.167,2.8C21.9,53.449,21.95,58.943,21.95,59a1,1,0,0,0,2,0c0-.266-.044-6.523-3.9-9.525a16.881,16.881,0,0,1-2.881-2.543c-3.867-4.2-2.493-5.969-6.411-8.256A12.533,12.533,0,0,0,5.77,36.985a2,2,0,0,1,.108-3.99,17.85,17.85,0,0,1,10.887,3.043,1.994,1.994,0,0,0,3.087-1.061,12.983,12.983,0,0,0,.622-6.689L16.842,8.4a2,2,0,1,1,3.935-.753l5.2,21.59A1,1,0,0,0,27.95,29V4.108a2,2,0,1,1,4-.11V29a1,1,0,0,0,1.974.228L38.991,7.6a2,2,0,0,1,3.922.771l-4.5,20.409a1,1,0,0,0,1.85.7l6.875-12.336a2,2,0,0,1,3.014-.751,2.1,2.1,0,0,1,.558,2.566L44.759,32.006C43.7,34.341,43.95,35.336,43.95,44c0,2.929,0,4.7-1.832,7.445-1.383,2.074-1.193,7.041-1.167,7.6a1,1,0,1,0,2-.093c-.086-1.862.065-5.245.833-6.4,2.587-3.88,2.191-6.311,2.153-12.7-.03-4.78-.035-5.515.645-7.018L52.527,19.8a4.009,4.009,0,0,0-4.583-5.671,3.928,3.928,0,0,0-2.587,2.115l-3.525,6.321L44.87,8.786A4,4,0,0,0,37.036,7.18L33.95,20.348V4A4,4,0,0,0,29.175.075,4.052,4.052,0,0,0,25.95,4.108V20.576L22.729,7.208a4,4,0,0,0-7.852,1.56l3.629,19.877a10.981,10.981,0,0,1-.584,5.762A19.734,19.734,0,0,0,5.747,31a4,4,0,0,0-.216,7.97Z"/><path d="M24.192,37.027a1,1,0,0,0-.488,1.94,9.126,9.126,0,0,1,5.352,4.478,1,1,0,1,0,1.789-.9A11.007,11.007,0,0,0,24.192,37.027Z"/><path d="M46.391,58.207A1,1,0,0,0,47,60c1.263,0,3.709-3.405,1.935-6.6l-.371-.664a3.02,3.02,0,0,1,.8-3.837l.6-.462a5.031,5.031,0,0,0,1.326-6.394l-.369-.666a3.016,3.016,0,0,1,.8-3.835A1,1,0,0,0,50.5,35.955a5.028,5.028,0,0,0-1.325,6.392l.369.666a3.018,3.018,0,0,1-.8,3.836l-.6.463a5.032,5.032,0,0,0-1.327,6.4l.37.664A3.017,3.017,0,0,1,46.391,58.207Z"/><path d="M10.016,12.891l.6.463a3.017,3.017,0,0,1,.793,3.836l-.37.665a5.032,5.032,0,0,0,1.321,6.4l.6.464a3.019,3.019,0,0,1,.792,3.837,1,1,0,0,0,1.748.972,5.032,5.032,0,0,0-1.321-6.395l-.6-.463a3.019,3.019,0,0,1-.792-3.837l.37-.665a5.031,5.031,0,0,0-1.322-6.394l-.6-.464a3.02,3.02,0,0,1-.792-3.837A1,1,0,1,0,8.694,6.5,5.032,5.032,0,0,0,10.016,12.891Z"/><path d="M10.04,47.445l-.74-.177a3.019,3.019,0,0,1-2.288-3.18,1,1,0,0,0-1.992-.176,5.028,5.028,0,0,0,3.813,5.3l.74.178a3.017,3.017,0,0,1,2.289,3.179l-.066.758a5.029,5.029,0,0,0,3.813,5.3l.741.178c1.4.335,1.41,1.2,2.231,1.2a1,1,0,0,0,.732-1.681,5.558,5.558,0,0,0-3.237-1.636A3.02,3.02,0,0,1,13.788,53.5l.066-.758A5.03,5.03,0,0,0,10.04,47.445Z"/><path d="M52.265,27.812a4.637,4.637,0,0,1-2.142,3.643,1,1,0,1,0,.99,1.737,6.625,6.625,0,0,0,3.152-5.359l.006-.668a4.626,4.626,0,0,1,2.14-3.64l.582-.331a1,1,0,0,0-.988-1.739l-.583.332a6.613,6.613,0,0,0-3.151,5.359Z"/></svg>
