<svg id="Capa_1" enable-background="new 0 0 512 512" height="512" viewBox="0 0 512 512" width="512" xmlns="http://www.w3.org/2000/svg"><g><path d="m475.782 246.019c11.762-17.137 31.976-51.516 24.521-76.223-2.86-9.481-9.53-16.598-19.341-20.656.229-18.52-9.335-38.331-25.874-56.173 27.287-8.854 41.102-20.211 41.102-33.844 0-9.373-6.648-17.763-19.76-24.938-3.633-1.988-8.19-.655-10.18 2.979-1.988 3.634-.655 8.191 2.979 10.18 7.489 4.099 11.961 8.502 11.961 11.78 0 4.252-8.265 13.459-38.55 21.925-34.708-29.703-87.246-48.812-131.103-43.74-27.296 3.161-46.847 15.192-55.053 33.876-2.618 5.96-3.944 12.401-3.985 19.147-5.479-.687-10.827-1.451-16.006-2.298-4.092-.675-7.944 2.102-8.613 6.189-.669 4.088 2.102 7.944 6.189 8.613 3.537.579 7.151 1.119 10.825 1.625-8.167 16.846-11.559 38.079-12.965 52.809-.287.125-.577.244-.862.376-8.962 4.18-15.761 11.602-19.145 20.897l-3.58 9.83c-3.385 9.292-2.945 19.346 1.238 28.311 4.181 8.961 11.601 15.759 20.891 19.143l7.796 2.841c-.836 4.446-1.232 8.959-1.147 13.507.076 4.094 3.418 7.361 7.496 7.361.047 0 .095 0 .142-.001 4.142-.077 7.437-3.497 7.359-7.638-.118-6.361.937-12.648 3.135-18.688l33.016-90.71c1.53-4.206 4.275-7.774 7.938-10.319.997-.693 2.341-.617 3.27.185 13.28 11.467 29.501 21.57 46.908 29.215 30.661 13.464 62.304 18.573 89.103 14.387.976-.152 1.9.15 2.482.805 5.275 5.946 6.867 14.271 4.153 21.727-3.89 10.687-29.493 81.033-33.016 90.71-9.779 26.868-39.595 40.768-66.461 30.991l-56.402-20.529c-10.041-3.654-18.578-10.191-24.69-18.903-2.378-3.392-7.056-4.21-10.447-1.833-3.391 2.379-4.211 7.056-1.833 10.447 5.537 7.892 12.618 14.393 20.822 19.2l-6.09 10.551-47.744-27.565c-15.292-8.832-34.291-8.833-49.581 0l-152.842 88.24c-3.587 2.071-4.816 6.658-2.745 10.245 2.077 3.599 6.668 4.811 10.245 2.745l79.866-46.11 17.558 30.41-104.922 60.566c-3.587 2.071-4.817 6.658-2.746 10.245 2.081 3.606 6.675 4.807 10.245 2.746l114.493-66.094-67.088 116.189c-1.34 2.321-1.34 5.18 0 7.5 1.339 2.32 3.815 3.75 6.495 3.75h239.081c1.316 0 2.61-.347 3.75-1.005l21.479-12.402c3.587-2.071 4.816-6.658 2.745-10.246-2.072-3.587-6.659-4.816-10.245-2.745l-19.739 11.398h-18.859l-12.837-22.245 57.236-33.05c3.588-2.071 4.816-6.659 2.745-10.246-2.072-3.587-6.659-4.814-10.245-2.745l-118.27 68.286h-123.85l89.244-154.56c2.071-3.587.842-8.174-2.745-10.246-3.587-2.071-8.174-.842-10.246 2.745l-13.648 23.637-19.082 11.019-17.558-30.41 59.986-34.63c10.664-6.159 23.914-6.159 34.579 0l28.562 16.493c-.027 23.784 12.774 46.272 33.528 58.247 20.621 11.909 46.485 11.907 67.213-.085l43.616 25.186c2.873 1.659 4.998 4.345 5.831 7.38 5.859 21.227-3.382 43.753-22.472 54.78l-2.684 1.55c-3.587 2.071-4.815 6.659-2.744 10.246 1.39 2.406 3.91 3.75 6.502 3.75 2.949 0 4.492-1.597 6.428-2.557 25.003-14.442 37.104-43.951 29.432-71.75-1.867-6.8-6.529-12.773-12.792-16.39-.117-.068-53.451-30.862-62.804-36.262l11.893-20.593c7.283 2.554 14.72 3.78 22.045 3.78 23.79 0 46.354-12.804 58.303-34.024l7.787 2.831c9.168 3.34 19.225 3.004 28.312-1.231 8.966-4.179 15.765-11.599 19.142-20.889l3.581-9.831c3.424-9.409 3.006-19.786-1.657-29.167zm-208.16 236.236 8.51 14.745h-34.05zm10.727-115.951c-13.436-7.752-22.578-21.182-25.232-36.138l5.018 2.896c6.288 3.638 14.31 1.467 17.921-4.802l7.792-13.499 40.1 14.595-11.506 19.92c-3.612 6.271-1.453 14.311 4.811 17.92l5.017 2.896c-14.28 5.176-30.483 3.971-43.921-3.788zm-8.131-289.088c5.975-13.604 21.262-22.486 43.044-25.008 37.305-4.314 80.687 11.085 110.837 33.288-28.526 5.852-63.649 9.028-100.733 9.028-19.209 0-38.087-.869-55.855-2.546-.179-5.289.727-10.255 2.707-14.762zm-27.671 147.045-6.94-2.529c-5.529-2.014-9.944-6.059-12.432-11.391s-2.75-11.31-.737-16.835l3.581-9.831c2.013-5.532 6.059-9.948 11.39-12.435 5.33-2.486 11.309-2.746 16.838-.733l6.946 2.527zm190.625-63.116c-23.651 3.695-53.09-1.151-80.756-13.301-16.056-7.052-30.973-16.331-43.137-26.834-6.113-5.278-15.01-5.75-21.632-1.149-6.22 4.322-10.879 10.376-13.474 17.508l-7.851 21.571c-5.105-1.605-10.226-4.613-18.988-4.768 2.317-20.166 7.068-36.916 13.538-47.783 19.755 2.062 40.934 3.135 62.493 3.135 43.129 0 83.85-4.221 115.226-11.911 17.602 16.765 28.008 35.638 27.343 52.368-.208 5.609 3.222 10.72 8.521 12.713 6.189 2.342 9.839 5.976 11.486 11.434 3.824 12.675-3.772 35.054-19.97 59.62-3.155-2.553-6.741-4.598-10.668-6.027l-6.937-2.524 7.851-21.571c4.6-12.638 1.906-26.744-7.03-36.814-3.985-4.491-9.969-6.611-16.015-5.667zm30.172 108.909-3.582 9.833c-2.009 5.525-6.052 9.937-11.384 12.422s-11.313 2.746-16.845.732l-6.94-2.523 18.644-51.225 6.938 2.524c11.443 4.166 17.336 16.788 13.169 28.237z"/><path d="m402.527 227.765c3.9 1.419 8.2-.598 9.613-4.483 1.417-3.892-.591-8.196-4.482-9.613-9.203-3.349-16.468-10.122-20.458-19.07-1.687-3.783-6.121-5.483-9.903-3.796-3.783 1.687-5.483 6.121-3.796 9.904 5.66 12.695 15.968 22.305 29.026 27.058z"/><path d="m332.849 174.816c-8.807 4.29-18.726 4.808-27.929 1.459-3.898-1.417-8.197.591-9.613 4.483-1.417 3.892.591 8.196 4.482 9.613 5.687 2.069 11.563 3.098 17.42 3.098 7.594 0 15.153-1.731 22.208-5.167 3.725-1.814 5.272-6.304 3.458-10.027-1.813-3.723-6.303-5.272-10.026-3.459z"/><path d="m364.272 256.521c1.753 3.759 6.216 5.376 9.967 3.627l4.806-2.241 2.241 4.807c1.753 3.759 6.217 5.376 9.967 3.627 3.754-1.751 5.378-6.213 3.627-9.967l-2.241-4.806 4.807-2.241c3.754-1.75 5.378-6.213 3.627-9.967s-6.213-5.378-9.967-3.628l-4.807 2.241-2.241-4.806c-1.751-3.754-6.212-5.375-9.967-3.627-3.754 1.751-5.378 6.213-3.627 9.967l2.241 4.806-4.806 2.241c-3.754 1.75-5.378 6.213-3.627 9.967z"/><path d="m283.629 227.169c1.272 2.729 3.977 4.333 6.802 4.333 1.062 0 2.14-.227 3.165-.705l4.806-2.241 2.241 4.806c1.758 3.767 6.224 5.373 9.968 3.628 3.754-1.75 5.378-6.213 3.628-9.967l-2.241-4.807 4.807-2.241c3.754-1.75 5.378-6.213 3.627-9.967s-6.213-5.377-9.967-3.628l-4.806 2.241-2.241-4.806c-1.752-3.754-6.214-5.377-9.968-3.628-3.754 1.75-5.378 6.213-3.628 9.967l2.241 4.807-4.807 2.241c-3.754 1.751-5.378 6.214-3.627 9.967z"/><path d="m292.303 268.038c-4.32 11.872 1.787 25.142 13.694 29.367 21.799 7.735 24.126 9.745 30.787 9.744 9.361 0 18.171-5.783 21.554-15.077 2.093-5.751 1.821-11.973-.766-17.52-2.586-5.547-7.178-9.754-12.929-11.848l-22.973-8.362c-11.894-4.328-25.035 1.791-29.367 13.696zm51.94 18.904c-1.492 4.099-6.044 6.222-10.142 4.729l-22.973-8.361c-4.101-1.492-6.222-6.042-4.729-10.142 1.49-4.094 6.016-6.231 10.142-4.729l22.973 8.362c4.1 1.492 6.221 6.041 4.729 10.141z"/><path d="m406.587 37.416c2.08 3.605 6.675 4.808 10.245 2.745l3.856-2.227v4.454c0 4.142 3.357 7.5 7.5 7.5s7.5-3.358 7.5-7.5v-4.454l3.857 2.227c3.581 2.067 8.17.85 10.245-2.745 2.071-3.587.842-8.174-2.745-10.245l-3.857-2.227 3.857-2.227c3.587-2.071 4.816-6.658 2.745-10.245-2.07-3.588-6.656-4.817-10.245-2.745l-3.857 2.227v-4.454c0-4.142-3.357-7.5-7.5-7.5s-7.5 3.358-7.5 7.5v4.454l-3.856-2.227c-3.589-2.073-8.175-.842-10.245 2.745-2.071 3.587-.842 8.174 2.745 10.245l3.856 2.227-3.856 2.227c-3.586 2.07-4.816 6.657-2.745 10.245z"/><path d="m214.116 72.108c-2.071-3.587-6.658-4.817-10.245-2.745l-3.856 2.227v-4.453c0-4.142-3.358-7.5-7.5-7.5s-7.5 3.358-7.5 7.5v4.453l-3.857-2.227c-3.588-2.072-8.175-.842-10.245 2.745-2.071 3.587-.842 8.174 2.745 10.245l3.857 2.227-3.857 2.227c-3.587 2.071-4.816 6.658-2.745 10.245 2.077 3.599 6.668 4.811 10.245 2.745l3.857-2.227v4.453c0 4.142 3.358 7.5 7.5 7.5s7.5-3.358 7.5-7.5v-4.453l3.856 2.227c3.571 2.062 8.165.858 10.245-2.745 2.071-3.587.842-8.174-2.745-10.245l-3.857-2.227 3.857-2.227c3.587-2.07 4.816-6.657 2.745-10.245z"/><path d="m158.042 66.623c4.142 0 7.5-3.358 7.5-7.5 0-4.445 9.016-14.308 42.806-23.076 30.628-7.948 71.476-12.325 115.019-12.325 20.751 0 40.958.995 60.059 2.958 4.128.415 7.804-2.575 8.228-6.694.423-4.121-2.574-7.804-6.694-8.228-19.608-2.014-40.331-3.036-61.592-3.036-44.777 0-86.963 4.548-118.786 12.806-35.857 9.305-54.039 21.954-54.039 37.595-.001 4.142 3.357 7.5 7.499 7.5z"/><path d="m22.627 267.207c18.043-8.014 37.143-13.89 56.767-17.463 29.021-5.284 58.329-5.44 87.113-.462 4.079.703 7.962-2.031 8.668-6.112s-2.031-7.962-6.112-8.668c-30.524-5.279-61.596-5.115-92.355.485-20.794 3.787-41.038 10.015-60.169 18.512-3.786 1.682-5.491 6.113-3.81 9.899 1.678 3.779 6.107 5.493 9.898 3.809z"/><path d="m36.733 215.843c12.565-4.449 25.638-7.925 38.856-10.332 23.34-4.25 47.017-5.183 70.375-2.772 4.113.42 7.805-2.57 8.23-6.69s-2.57-7.805-6.69-8.23c-24.769-2.557-49.867-1.568-74.603 2.935-14.004 2.55-27.858 6.234-41.176 10.95-3.904 1.382-5.949 5.668-4.566 9.573 1.383 3.904 5.669 5.948 9.574 4.566z"/></g></svg>