<svg id="Layer_2" enable-background="new 0 0 512 512" viewBox="0 0 512 512" xmlns="http://www.w3.org/2000/svg"><g><g><g><g style="fill:none;stroke:#474747;stroke-linecap:round;stroke-linejoin:round;stroke-miterlimit:10;stroke-width:15"><path d="m280.421 212.702c-7.937 34.256-38.603 59.327-74.727 59.327-39.891 0-73.125-30.571-76.449-70.323l-4.927-58.92v-13.415c0-42.134 32.022-76.789 73.056-80.956"/><g><path d="m248.304 267.672 2.813 28.131c1.333 13.331 11.244 24.214 24.392 26.785l23.452 5.225c24.017 5.351 49.175-3.906 69.122-18.312l34.92-25.22c9.257-6.686 9.627-20.342.746-27.519l-117.605-90.967c-14.554-11.762-16.55-33.208-4.415-47.453 11.74-13.781 32.344-15.647 46.368-4.199l151.364 123.729c22.834 18.64 23.411 53.341 1.21 72.73l-109.891 103.849c-8.688 6.925-14.498 16.827-16.305 27.789l-3.778 22.923"/><path d="m167.344 267.672-2.813 28.131c-1.333 13.331-10.216 20.821-24.392 26.785l-72.309 23.171c-24.03 4.699-42.171 24.544-44.699 48.899l-6.875 70.506"/></g></g></g></g><g style="fill:none;stroke:#474747;stroke-linecap:round;stroke-linejoin:round;stroke-miterlimit:10;stroke-width:15"><path d="m302.907 180.633c-5.418 3.263-12.348 3.735-18.392.642l-80.704-41.312c-9.297-4.759-12.976-16.154-8.217-25.451l30.135-58.87c4.759-9.297 16.154-12.976 25.451-8.217l80.704 41.312c9.297 4.759 12.976 16.154 8.217 25.451l-3.223 6.296"/><path d="m106.297 384.514v16.631c0 6.495-5.265 11.761-11.761 11.761-6.495 0-11.761-5.265-11.761-11.761v-28.748"/><path d="m191.316 190.989v16.631c0 6.495-5.265 11.761-11.761 11.761-6.495 0-11.761-5.265-11.761-11.761v-28.748"/><path d="m153.812 427.807v16.631c0 6.495-5.265 11.761-11.761 11.761-6.495 0-11.761-5.265-11.761-11.761v-28.748"/><path d="m259.085 400.011v16.631c0 6.495 5.265 11.761 11.761 11.761 6.495 0 11.761-5.265 11.761-11.761v-28.748"/><path d="m148.408 118.699v16.631c0 6.495 5.265 11.761 11.761 11.761 6.495 0 11.761-5.265 11.761-11.761v-28.748"/></g></g></svg>