<svg height="512" viewBox="0 0 25 25" width="512" xmlns="http://www.w3.org/2000/svg"><g id="Layer_48" data-name="Layer 48"><path d="m23 12.5a10.49 10.49 0 0 1 -17.1 8.15v1.35a1 1 0 0 1 -2 0v-3.8a1 1 0 0 1 1-1h3.8a1 1 0 0 1 0 2h-1.42a8.51 8.51 0 0 0 13.3-9.36 1 1 0 0 1 .63-1.26 1 1 0 0 1 1.27.63 10.78 10.78 0 0 1 .52 3.29zm-18.46 3a8.41 8.41 0 0 1 -.54-3 8.49 8.49 0 0 1 13.72-6.7h-1.42a1 1 0 0 0 0 2h3.8a1 1 0 0 0 1-1v-3.8a1 1 0 0 0 -2 0v1.35a10.5 10.5 0 0 0 -16.44 11.83 1 1 0 0 0 .94.65.91.91 0 0 0 .4-.07 1 1 0 0 0 .54-1.28z" fill="rgb(0,0,0)"/></g></svg>