<?xml version="1.0" encoding="UTF-8" standalone="no"?>
<!-- Created with Inkscape (http://www.inkscape.org/) -->

<svg
   version="1.1"
   id="svg207"
   xml:space="preserve"
   width="682.66669"
   height="682.66669"
   viewBox="0 0 682.66669 682.66669"
   xmlns="http://www.w3.org/2000/svg"
   xmlns:svg="http://www.w3.org/2000/svg"><defs
     id="defs211"><clipPath
       clipPathUnits="userSpaceOnUse"
       id="clipPath221"><path
         d="M 0,512 H 512 V 0 H 0 Z"
         id="path219" /></clipPath></defs><g
     id="g213"
     transform="matrix(1.3333333,0,0,-1.3333333,0,682.66667)"><g
       id="g215"><g
         id="g217"
         clip-path="url(#clipPath221)"><g
           id="g223"
           transform="translate(380.004,216.8588)"><path
             d="m 0,0 h -178.548 c -63.764,0 -115.456,51.692 -115.456,115.456 v 10e-4 c 0,15.949 3.008,30.688 8.364,43.927"
             style="fill:none;stroke:#000000;stroke-width:20;stroke-linecap:round;stroke-linejoin:round;stroke-miterlimit:10;stroke-dasharray:none;stroke-opacity:1"
             id="path225" /></g><g
           id="g227"
           transform="translate(156.801,438.7867)"><path
             d="m 0,0 c 38.972,16.366 86.678,12.006 123.145,-21.799 l 8.202,-7.603"
             style="fill:none;stroke:#000000;stroke-width:20;stroke-linecap:round;stroke-linejoin:round;stroke-miterlimit:10;stroke-dasharray:none;stroke-opacity:1"
             id="path229" /></g><g
           id="g231"
           transform="translate(317.2174,279.6458)"><path
             d="M 0,0 V 0 C 0,-34.676 28.111,-62.787 62.787,-62.787 H 184.783 L 113.881,36.49 C 78.38,86.199 0,61.084 0,0 Z"
             style="fill:none;stroke:#000000;stroke-width:20;stroke-linecap:round;stroke-linejoin:round;stroke-miterlimit:10;stroke-dasharray:none;stroke-opacity:1"
             id="path233" /></g><g
           id="g235"
           transform="translate(179.459,368.8582)"><path
             d="m 0,0 c 31.6,0 57.217,-25.617 57.217,-57.217 0,-18.9 -9.169,-35.654 -23.296,-46.073 h -10.38 18.115 c 26.902,0 48.71,-21.808 48.71,-48.709"
             style="fill:none;stroke:#000000;stroke-width:20;stroke-linecap:round;stroke-linejoin:round;stroke-miterlimit:10;stroke-dasharray:none;stroke-opacity:1"
             id="path237" /></g><g
           id="g239"
           transform="translate(321.806,352.6248)"><path
             d="M 0,0 58.422,-9.314 49.108,49.108 C 45.789,69.926 27.833,85.245 6.753,85.245 H 6.752 c -23.687,0 -42.89,-19.202 -42.89,-42.89 v 0 C -36.138,21.274 -20.818,3.319 0,0 Z"
             style="fill:none;stroke:#000000;stroke-width:20;stroke-linecap:round;stroke-linejoin:round;stroke-miterlimit:10;stroke-dasharray:none;stroke-opacity:1"
             id="path241" /></g><g
           id="g243"
           transform="translate(390.8197,401.7326)"><path
             d="m 0,0 -9.314,-58.422 58.422,9.314 c 20.818,3.319 36.137,21.275 36.137,42.355 v 0.001 c 0,23.687 -19.202,42.89 -42.89,42.89 v 0 C 21.274,36.138 3.319,20.818 0,0 Z"
             style="fill:none;stroke:#000000;stroke-width:20;stroke-linecap:round;stroke-linejoin:round;stroke-miterlimit:10;stroke-dasharray:none;stroke-opacity:1"
             id="path245" /></g><g
           id="g247"
           transform="translate(453.3079,216.8588)"><path
             d="M 0,0 V -29.184"
             style="fill:none;stroke:#000000;stroke-width:20;stroke-linecap:round;stroke-linejoin:round;stroke-miterlimit:10;stroke-dasharray:none;stroke-opacity:1"
             id="path249" /></g><g
           id="g251"
           transform="translate(440.3282,216.8588)"><path
             d="M 0,0 -28.038,-28.038"
             style="fill:none;stroke:#000000;stroke-width:20;stroke-linecap:round;stroke-linejoin:round;stroke-miterlimit:10;stroke-dasharray:none;stroke-opacity:1"
             id="path253" /></g><g
           id="g255"
           transform="translate(470.8618,267.2404)"><path
             d="M 0,0 H 31.138"
             style="fill:none;stroke:#000000;stroke-width:20;stroke-linecap:round;stroke-linejoin:round;stroke-miterlimit:10;stroke-dasharray:none;stroke-opacity:1"
             id="path257" /></g><g
           id="g259"
           transform="translate(458.9249,278.7078)"><path
             d="M 0,0 26.477,26.477"
             style="fill:none;stroke:#000000;stroke-width:20;stroke-linecap:round;stroke-linejoin:round;stroke-miterlimit:10;stroke-dasharray:none;stroke-opacity:1"
             id="path261" /></g><g
           id="g263"
           transform="translate(387.1501,282.9419)"><path
             d="M 0,0 V 0"
             style="fill:none;stroke:#000000;stroke-width:20;stroke-linecap:round;stroke-linejoin:round;stroke-miterlimit:10;stroke-dasharray:none;stroke-opacity:1"
             id="path265" /></g><g
           id="g267"
           transform="translate(85.9997,349.4225)"><path
             d="m 0,0 c -43.655,-9.057 -76.396,-47.915 -75.996,-94.348 0.452,-52.595 43.998,-94.659 96.594,-94.659 h 130.863 c 26.625,0 48.208,-21.584 48.208,-48.208 v 0 c 0,-26.624 -21.583,-48.208 -48.208,-48.208 H 98.5"
             style="fill:none;stroke:#000000;stroke-width:20;stroke-linecap:round;stroke-linejoin:round;stroke-miterlimit:10;stroke-dasharray:none;stroke-opacity:1"
             id="path269" /></g><g
           id="g271"
           transform="translate(119.3749,413.7936)"><path
             d="M 0,0 V 0"
             style="fill:none;stroke:#000000;stroke-width:20;stroke-linecap:round;stroke-linejoin:round;stroke-miterlimit:10;stroke-dasharray:none;stroke-opacity:1"
             id="path273" /></g></g></g></g></svg>
